<svg width="64" height="59" viewBox="0 0 64 59" fill="none" xmlns="http://www.w3.org/2000/svg">
<g clip-path="url(#clip0_2_1621)">
<path d="M0.231349 27.0938C0.259314 26.4137 0.3788 25.7462 0.554216 25.0889C0.605061 25.0007 0.709294 24.9201 0.607604 24.8043C0.688956 24.1847 0.841492 23.5802 1.02453 22.9807C1.06013 22.9807 1.09572 22.9807 1.13131 22.9807C1.13639 23.4895 0.96352 23.9706 0.854203 24.4542C0.663533 25.3105 0.544047 26.1744 0.391512 27.0358C0.175419 28.2398 0.211011 29.4638 0.162708 30.6804C0.129659 31.5292 0.305075 32.3704 0.322871 33.2192C0.33304 33.6298 0.401681 34.0277 0.45761 34.4282C0.541505 35.0201 0.658449 35.6095 0.798273 36.1913C0.849119 36.4104 0.854203 36.6447 0.935555 36.8436C1.11606 37.2844 1.19232 37.7504 1.33977 38.1962C1.47451 38.6017 1.61688 39.0047 1.77704 39.3976C1.94992 39.8207 2.10754 40.2514 2.26516 40.6771C2.42024 41.0977 2.62616 41.4957 2.8092 41.8987C3.1219 42.5863 3.52866 43.2311 3.87695 43.9036C4.00661 44.1554 4.21253 44.3443 4.32693 44.6214C4.53031 45.1151 4.9447 45.4954 5.22689 45.9588C5.46586 46.3517 5.74806 46.7396 6.08618 47.0746C6.11923 47.1073 6.13702 47.1602 6.19041 47.1552C6.50311 47.1376 6.4726 47.3643 6.4904 47.5582C6.6048 47.8101 6.85394 47.9536 7.00393 48.1828C7.26324 48.5808 7.66238 48.8604 7.9522 49.2331C8.15812 49.5001 8.43268 49.7142 8.6742 49.9358C8.84199 50.0895 9.11401 50.2532 9.25638 50.4169C9.48009 50.6738 9.76229 50.8753 9.96058 51.1499C10.2682 51.5755 10.8631 51.6763 11.1249 52.1548C11.1351 52.175 11.1783 52.1725 11.2037 52.1876C11.5114 52.3865 11.9207 52.52 12.1037 52.7996C12.363 53.195 12.8333 53.2051 13.1155 53.5351C13.4028 53.8726 13.9316 53.9053 14.2392 54.2529C14.2494 54.263 14.2773 54.2705 14.2926 54.263C14.4655 54.1874 14.5316 54.3335 14.6205 54.4217C14.8087 54.608 15.0731 54.6332 15.2993 54.734C15.4214 54.7894 15.5688 54.6937 15.5714 54.5551C15.5764 54.3285 15.7213 54.1925 15.8739 54.1018C16.1103 53.9607 16.1434 53.7618 16.0976 53.5426C16.0442 53.2958 16.0137 53.0817 16.3086 52.9684C16.3391 52.9558 16.3595 52.913 16.3772 52.8802C16.6086 52.4797 16.5933 51.9634 16.9772 51.6309C17.0179 51.5957 17.0128 51.5075 17.0255 51.442C17.0332 51.3866 17.0154 51.2985 17.0738 51.2884C17.5187 51.2153 17.2797 50.6033 17.7018 50.5126C17.717 50.5101 17.7196 50.4245 17.717 50.3766C17.7119 50.2784 17.7424 50.1928 17.7831 50.1046C17.8975 49.8653 18.0984 49.6663 18.0831 49.3691C18.078 49.2734 18.1517 49.1802 18.2738 49.1475C18.3755 49.1198 18.4797 49.0593 18.4339 48.9258C18.378 48.7722 18.4746 48.7193 18.5839 48.6689C18.8788 48.5304 18.9297 48.1425 19.2576 48.0342C19.2831 48.0267 19.3008 47.9713 19.3085 47.936C19.3517 47.7118 19.5093 47.5733 19.6542 47.4071C19.9517 47.067 20.0788 46.6162 20.3533 46.251C20.4245 46.1553 20.4474 46.0822 20.5796 46.0722C20.7728 46.057 20.9126 45.9765 20.8389 45.7397C20.811 45.6465 20.8059 45.5206 20.8821 45.4702C21.2228 45.2385 21.0042 44.7624 21.3169 44.5232C21.3601 44.4904 21.3474 44.4149 21.3067 44.3645C21.2126 44.2486 21.2203 44.0975 21.1694 43.9665C21.2533 43.9565 21.3296 43.9842 21.4008 44.0245C21.4516 44.1353 21.5584 44.1781 21.6575 44.2385C22.1228 44.5181 22.6058 44.765 23.0532 45.0748C23.1778 45.1604 23.1575 45.2234 23.1346 45.3191C22.6109 45.7347 22.1278 46.1905 21.6651 46.6741C20.8033 47.5758 20.0051 48.5203 19.3491 49.5782C18.7721 50.5076 18.2484 51.4672 17.8213 52.4747C17.3916 53.4847 17.0942 54.535 16.8603 55.6054C16.7789 55.6357 16.8094 55.7213 16.7713 55.7742C16.0518 55.4039 15.3248 55.0538 14.618 54.6634C12.9732 53.7542 11.4809 52.6309 10.0496 51.4244C9.99109 51.3765 9.94279 51.3186 9.8894 51.2632C9.86398 51.2103 9.82584 51.17 9.76737 51.1574C8.87504 50.4094 8.0488 49.5958 7.26833 48.7344C6.10397 47.4499 5.02605 46.0948 4.1083 44.6239C3.45748 43.5837 2.90581 42.488 2.3821 41.3798C1.69569 39.924 1.17707 38.4103 0.78302 36.8512C0.449984 35.539 0.261856 34.2091 0.122032 32.8691C0.114405 32.8036 0.124574 32.7356 0.127116 32.6702C0.175419 32.5921 0.185588 32.519 0.111863 32.451C0.00763017 31.6299 -0.00508113 30.8063 0.0279683 29.9802C0.0483063 29.4714 0.0101724 28.9576 0.111863 28.4539C0.188131 28.3833 0.180504 28.3103 0.124574 28.2347C0.106778 27.9224 0.134743 27.6151 0.218638 27.3129C0.307617 27.2499 0.292363 27.1743 0.24406 27.0938H0.231349ZM15.7569 54.5703C15.7569 54.6206 15.7671 54.671 15.8281 54.666C15.8764 54.6609 15.9069 54.6181 15.9146 54.5677C15.9196 54.5123 15.8917 54.4745 15.8383 54.4745C15.7824 54.4745 15.7595 54.5174 15.7595 54.5703H15.7569ZM15.8027 54.9027C15.7595 54.9355 15.7391 54.9506 15.7188 54.9632C15.7341 54.9808 15.7442 55.011 15.762 55.0161C15.7976 55.0261 15.8383 55.0186 15.8357 54.9707C15.8357 54.9481 15.8154 54.9254 15.8027 54.9027Z" fill="#2EA4CE"/>
<path d="M62.5472 23.492C62.6311 23.6582 62.7328 23.8219 62.6616 24.0209C62.7862 24.5473 62.8421 25.0889 63.0048 25.6052C63.1548 26.1694 63.1599 26.7587 63.2743 27.3204C63.3913 27.8997 63.2667 28.4866 63.4396 29.0482C63.4523 29.086 63.4319 29.1213 63.3862 29.1314C63.3353 29.0684 63.2845 29.0205 63.2311 29.1314C62.8625 28.9702 62.4939 28.814 62.1023 28.7082C61.9473 28.6679 61.7439 28.7662 61.6346 28.5722C61.782 28.5571 61.9396 28.6175 62.0693 28.4916C62.11 28.4513 62.1964 28.4463 62.2218 28.4967C62.3693 28.7964 62.6794 28.7208 62.9209 28.7964C63.1243 28.8593 63.2362 28.7233 63.2311 28.542C63.2235 28.2851 63.2133 28.0231 63.1243 27.7738C63.0582 27.1844 63.0201 26.59 62.9159 26.0057C62.7074 24.8471 62.4405 23.701 62.1176 22.5676C62.0515 22.3359 62.0134 22.084 61.9371 21.8599C61.6041 20.86 61.182 19.8928 60.7854 18.9155C60.2795 17.6688 59.6567 16.49 58.9576 15.3465C58.8101 15.1072 58.6398 14.878 58.4923 14.6438C58.2457 14.2534 57.9763 13.8832 57.7246 13.5003C57.5619 13.2535 57.3585 13.0419 57.2034 12.7976C56.9136 12.3417 56.6111 11.8984 56.2501 11.5005C55.9653 11.1856 55.6069 10.8909 55.3882 10.5635C54.8315 9.72478 54.0078 9.16311 53.3595 8.42513C53.0494 8.07251 52.5663 7.88612 52.2816 7.48565C52.246 7.43528 52.1774 7.40505 52.124 7.36475C51.9333 7.22622 51.7172 7.11288 51.5545 6.94917C51.2443 6.63181 50.8528 6.42276 50.5122 6.15326C49.9859 5.73767 49.4266 5.36994 48.8521 5.0274C47.8708 4.44054 46.8895 3.8562 45.8395 3.38773C45.2802 3.13837 44.7285 2.86635 44.1591 2.63463C43.9659 2.55655 43.704 2.68249 43.5693 2.41803C43.5286 2.33995 43.3506 2.48351 43.3074 2.41299C43.1091 2.10319 42.7557 2.11578 42.471 1.99488C41.8609 1.73798 41.205 1.6196 40.5745 1.4181C39.9211 1.20905 39.255 1.04533 38.5788 0.929473C38.3475 0.889174 38.1314 0.863987 37.9026 0.775833C37.656 0.682641 37.3534 0.690197 37.0763 0.64486C36.8984 0.614636 36.7535 0.513888 36.5628 0.506332C36.1687 0.491219 35.7721 0.443364 35.3806 0.395509C34.5544 0.294761 33.7282 0.246906 32.8969 0.234312C32.1113 0.221719 31.3232 0.231793 30.5376 0.234312C30.2605 0.234312 29.9758 0.206606 29.7038 0.246906C29.0072 0.347654 28.3081 0.395509 27.6039 0.403065C27.5556 0.31491 27.4437 0.377878 27.3852 0.309873C27.9572 0.186457 28.542 0.163788 29.1241 0.128527C30.7385 0.126008 32.3503 0.12097 33.9646 0.123489C34.2392 0.123489 34.5112 0.153714 34.7858 0.168826C34.8874 0.131045 34.9891 0.133564 35.0832 0.194013C35.1315 0.262018 35.1976 0.236831 35.2637 0.229275C35.3425 0.229275 35.4213 0.229275 35.5001 0.229275C36.1865 0.342616 36.8729 0.458476 37.5568 0.571818C37.8466 0.506332 38.111 0.64486 38.3856 0.690197C38.9678 0.785907 39.5423 0.934511 40.1169 1.068C41.3931 1.37025 42.6235 1.81354 43.8438 2.28957C45.448 2.91673 46.981 3.67738 48.4555 4.56648C50.1156 5.5664 51.6486 6.725 53.1078 7.99443C54.7705 9.44016 56.2068 11.0849 57.5059 12.8505C58.3601 14.0116 59.1559 15.213 59.8474 16.4799C60.6609 17.971 61.3117 19.5276 61.8913 21.1194C62.0617 21.5879 62.1634 22.0765 62.3134 22.55C62.3388 22.8774 62.4481 23.1847 62.5498 23.492H62.5472Z" fill="#38A3C6"/>
<path d="M63.2311 29.1288C63.2845 29.0205 63.3353 29.0658 63.3862 29.1288C63.4904 29.3026 63.4574 29.4965 63.465 29.6829C63.5946 32.4661 63.2692 35.1963 62.5066 37.8762C62.0057 39.6318 61.2939 41.2992 60.4143 42.8985C59.5245 44.5181 58.5533 46.0822 57.3534 47.4952C55.9755 49.1147 54.5544 50.6989 52.8561 52.0036C51.5494 53.0086 50.2198 53.9808 48.7656 54.7792C47.1183 55.6835 45.42 56.4768 43.6532 57.1141C41.8863 57.7488 40.0559 58.1619 38.2102 58.4968C37.956 58.5422 37.6966 58.5472 37.4373 58.5699C36.8933 58.6102 36.3518 58.6631 35.8179 58.789C35.7289 58.789 35.64 58.789 35.551 58.789C35.5688 58.5271 35.7849 58.5598 35.9374 58.5724C36.4713 58.6152 36.9975 58.5069 37.5009 58.4037C37.8212 58.3382 38.1619 58.3029 38.4797 58.25C39.0339 58.1593 39.5728 58.0158 40.1245 57.915C40.6406 57.8193 41.149 57.6783 41.6549 57.5347C42.2142 57.3735 42.7684 57.1896 43.3201 57.0033C43.6786 56.8824 44.0345 56.7262 44.3853 56.6179C44.9395 56.4466 45.4302 56.1368 45.987 55.9882C46.2691 55.9127 46.4776 55.6557 46.7293 55.5651C47.1945 55.3988 47.6343 55.1898 48.064 54.9656C48.5928 54.6911 49.1165 54.3989 49.6148 54.0664C49.841 53.9153 50.0215 53.6987 50.2783 53.5929C50.6723 53.4317 51.0384 53.2277 51.3537 52.9381C51.463 52.8373 51.5469 52.7139 51.6842 52.6333C52.2867 52.2731 52.8612 51.8651 53.3875 51.4092C54.0052 50.8727 54.5569 50.2607 55.1569 49.7041C55.4747 49.4094 55.7086 49.0467 56.0289 48.752C56.3136 48.49 56.6034 48.2155 56.8246 47.8805C57.0102 47.6009 57.2339 47.339 57.4576 47.0922C57.6788 46.8479 57.8873 46.5859 58.0729 46.324C58.4389 45.8051 58.7821 45.2636 59.1381 44.7372C59.6186 44.0319 59.9796 43.2663 60.4016 42.5358C60.6405 42.1228 60.8363 41.682 61.0244 41.2387C61.2075 40.8105 61.4439 40.3975 61.6066 39.9542C61.7871 39.4681 61.9778 38.9819 62.1303 38.4858C62.3083 37.9115 62.4532 37.3297 62.6032 36.7479C62.7532 36.1736 62.8549 35.5918 62.9464 35.0074C62.9998 34.6725 62.9972 34.3249 63.0786 34C63.2387 33.3501 63.2514 32.6877 63.2769 32.0329C63.3175 31.0682 63.343 30.0985 63.226 29.1338L63.2311 29.1288Z" fill="#37508B"/>
<path d="M27.3878 0.304842C27.4437 0.372847 27.5581 0.309879 27.6064 0.398034C27.5708 0.398034 27.5327 0.398034 27.4971 0.398034C27.3573 0.398034 27.2174 0.390478 27.0776 0.398034C26.9785 0.40559 26.8412 0.342623 26.8031 0.508857C26.7471 0.508857 26.6912 0.508857 26.6353 0.511376C26.2183 0.433296 25.8268 0.629754 25.4175 0.632273C25.3006 0.632273 25.4277 0.700278 25.4226 0.73554C25.3794 0.753171 25.3387 0.780877 25.2955 0.788433C24.8277 0.869031 24.365 0.997485 23.9125 1.11838C23.2388 1.29973 22.5651 1.49871 21.899 1.71783C21.5202 1.84125 21.1338 1.95459 20.7677 2.11075C20.3584 2.28454 19.9364 2.41803 19.5195 2.56412C18.9475 2.76309 18.4187 3.06282 17.8746 3.31721C17.3408 3.56656 16.8094 3.83354 16.2908 4.12067C15.579 4.51611 14.8646 4.91155 14.1706 5.33469C13.3977 5.80568 12.6655 6.33965 11.9512 6.89628C11.6766 7.11037 11.402 7.32446 11.1224 7.53351C10.7919 7.78286 10.5021 8.09518 10.197 8.38483C9.9555 8.61404 9.65551 8.76516 9.43687 9.01955C9.19536 9.30416 8.94876 9.58374 8.68691 9.85072C7.9344 10.6114 7.18189 11.367 6.57683 12.2611C6.21837 12.79 5.82178 13.2963 5.44298 13.8101C4.96504 14.4574 4.58624 15.1576 4.15152 15.8251C3.79306 16.3742 3.51849 16.9786 3.20579 17.5579C2.99987 17.5151 3.12698 17.6763 3.09393 17.7368C3.09393 17.772 3.09139 17.8098 3.08885 17.8451L3.02784 17.9584C3.01004 17.9962 2.99224 18.034 2.97445 18.0718C2.86005 18.0818 2.8575 18.1649 2.86005 18.2506C2.86005 18.3312 2.8575 18.4093 2.74819 18.4193C2.63124 18.5075 2.62616 18.6334 2.63124 18.7594C2.63124 18.7971 2.63124 18.8349 2.6287 18.8702C2.45583 18.9231 2.38464 19.0415 2.3999 19.2152V19.3236C2.24482 19.3462 2.29312 19.4671 2.28295 19.5578C2.24482 19.6686 2.20414 19.782 2.16601 19.8928C2.01602 19.918 2.06178 20.0363 2.05161 20.127C2.04398 20.2328 1.89907 20.2832 1.93466 20.4066C1.90161 20.4116 1.86602 20.4167 1.83297 20.4217L1.81518 20.4066C1.98042 19.782 2.2677 19.2052 2.52955 18.6183C3.22105 17.0693 4.04728 15.5959 4.97012 14.1728C5.02605 14.0872 5.10232 14.0116 5.16842 13.9335C5.24469 13.9461 5.2091 13.8857 5.21926 13.8555C5.43536 13.4424 5.71755 13.0721 5.9972 12.7019C7.18952 11.1201 8.51912 9.66685 9.99871 8.34453C11.2419 7.23127 12.5537 6.20868 13.9468 5.28431C15.3247 4.37002 16.7916 3.62701 18.2839 2.92177C20.2516 1.99237 22.321 1.34758 24.4235 0.803545C25.3946 0.551675 26.3785 0.335066 27.3903 0.299805L27.3878 0.304842Z" fill="#4FA2C2"/>
<path d="M27.7259 58.8016C27.2073 58.8444 26.709 58.653 26.1929 58.6756C25.3718 58.5119 24.5455 58.3583 23.7269 58.1795C21.716 57.7387 19.7635 57.1191 17.8772 56.298C17.5009 56.1343 17.1348 55.9479 16.7637 55.7741C16.7993 55.7212 16.7687 55.6331 16.8526 55.6053C17.0433 55.7162 17.2264 55.8396 17.4247 55.9328C17.6865 56.0537 17.9636 56.1469 18.2331 56.2552C18.7339 56.4541 19.222 56.6959 19.7356 56.8471C20.2644 57.0032 20.783 57.1921 21.3219 57.3206C21.7312 57.4188 22.1177 57.6128 22.5422 57.6908C23.3888 57.8495 24.2049 58.1316 25.0641 58.2575C25.3489 58.2978 25.6539 58.2752 25.9285 58.391C26.2361 58.5195 26.5793 58.527 26.8869 58.6706C26.9886 58.7185 27.1437 58.721 27.2505 58.653C27.4818 58.5094 27.6013 58.6605 27.731 58.8041L27.7259 58.8016Z" fill="#37508B"/>
<path d="M34.7883 0.163752C34.5137 0.14864 34.2417 0.118416 33.9671 0.118416C32.3528 0.118416 30.741 0.120934 29.1267 0.123453C29.1597 0.0604856 29.2207 0.0705604 29.2767 0.0705604C30.7385 0.0705604 32.2003 -0.0402624 33.6621 0.015149C33.9849 0.0277425 34.3103 0.0529295 34.6332 0.0705604C34.7019 0.0755978 34.7705 0.0755978 34.7858 0.163752H34.7883Z" fill="#77DBF1"/>
<path d="M1.12876 22.9832C1.09317 22.9832 1.05758 22.9832 1.02199 22.9832C1.15927 22.0866 1.44146 21.2352 1.81517 20.4116L1.83297 20.4267C1.83043 20.4998 1.82788 20.5728 1.82534 20.6459C1.82026 20.7063 1.83043 20.7743 1.76687 20.8146C1.74653 20.8322 1.72874 20.8524 1.7084 20.87C1.7084 20.9254 1.70586 20.9808 1.70331 21.0388C1.52536 21.1924 1.49739 21.4015 1.47705 21.613C1.47705 21.6861 1.47451 21.7616 1.47197 21.8347C1.32452 21.8599 1.37028 21.9783 1.36011 22.0664C1.18215 22.2276 1.26604 22.4417 1.24316 22.6356C1.03978 22.6961 1.1669 22.8648 1.12876 22.9782V22.9832Z" fill="#4FA2C2"/>
<path d="M37.5568 0.569226C36.8704 0.455885 36.184 0.340024 35.5001 0.226683C35.5688 0.151122 35.6628 0.176309 35.7416 0.188902C36.273 0.264463 36.8043 0.345062 37.3356 0.433216C37.417 0.44581 37.5365 0.44581 37.5594 0.571745L37.5568 0.569226Z" fill="#77DBF1"/>
<path d="M63.0048 25.6051C62.8421 25.0863 62.7862 24.5473 62.6616 24.0209C62.8447 24.2098 62.832 24.4667 62.8854 24.6984C62.9362 24.92 62.9337 25.1518 63.0252 25.3659C63.0557 25.4389 63.0735 25.5321 63.0023 25.6051H63.0048Z" fill="#4FA2C2"/>
<path d="M62.5472 23.4919C62.4455 23.1846 62.3362 22.8774 62.3108 22.5499C62.4786 22.8421 62.5752 23.1519 62.5472 23.4919Z" fill="#4FA2C2"/>
<path d="M0.607605 24.8068C0.709296 24.9226 0.607605 25.0032 0.554218 25.0914C0.554218 24.9931 0.528795 24.8899 0.607605 24.8068Z" fill="#35B1DC"/>
<path d="M35.2637 0.224243C35.2001 0.231799 35.1315 0.256986 35.0832 0.188981C35.1645 0.0907517 35.2205 0.126014 35.2637 0.224243Z" fill="#77DBF1"/>
<path d="M0.0991523 32.4535C0.172878 32.5215 0.165251 32.5971 0.114406 32.6726C0.086441 32.6021 0.0788142 32.5291 0.0991523 32.4535Z" fill="#35B1DC"/>
<path d="M0.111859 28.2346C0.167788 28.3102 0.175415 28.3857 0.0991472 28.4537C0.0838937 28.3782 0.0813514 28.3051 0.111859 28.2346Z" fill="#35B1DC"/>
<path d="M0.231346 27.0938C0.279649 27.1743 0.294902 27.2499 0.205923 27.3129C0.193212 27.2373 0.195754 27.1643 0.231346 27.0938Z" fill="#35B1DC"/>
<path d="M9.7572 51.1599C9.81822 51.1725 9.85381 51.2128 9.87923 51.2657C9.80805 51.2657 9.76991 51.2279 9.7572 51.1599Z" fill="#35B1DC"/>
<path d="M5.21926 13.8629C5.2091 13.8931 5.24469 13.9511 5.16842 13.941C5.18621 13.9158 5.20147 13.8906 5.21926 13.8629Z" fill="#35B1DC"/>
<path d="M27.7259 58.8016C27.5962 58.658 27.4768 58.5069 27.2454 58.6505C27.1386 58.7185 26.9836 58.7134 26.8819 58.6681C26.5743 58.5271 26.231 58.5195 25.9234 58.3885C25.6489 58.2727 25.3438 58.2953 25.0591 58.255C24.1998 58.1291 23.3837 57.8495 22.5371 57.6883C22.1126 57.6077 21.7287 57.4163 21.3169 57.3181C20.7779 57.1871 20.2593 56.9982 19.7305 56.8446C19.217 56.6934 18.7288 56.4542 18.228 56.2527C17.9585 56.1444 17.684 56.0512 17.4196 55.9303C17.2213 55.8396 17.0382 55.7137 16.8476 55.6028C17.0815 54.5324 17.3814 53.4821 17.8085 52.4721C18.2356 51.4646 18.7593 50.505 19.3364 49.5756C19.9949 48.5177 20.7906 47.5732 21.6524 46.6715C22.1151 46.1879 22.6007 45.7346 23.1219 45.3165C23.1981 45.324 23.2769 45.3366 23.3405 45.2762C23.5185 45.2787 23.6761 45.3492 23.8286 45.4323C24.482 45.7849 25.1938 45.999 25.8929 46.2182C26.4471 46.392 27.009 46.5783 27.5962 46.6589C28.0284 46.7194 28.4479 46.8907 28.8801 46.9184C29.9783 46.9889 31.069 47.1702 32.1825 47.1199C33.0519 47.0796 33.9239 47.0443 34.7756 46.9058C36.1992 46.6715 37.6153 46.3743 38.9474 45.7849C39.6745 45.4626 40.4194 45.188 41.116 44.7926C41.4592 44.5986 41.7592 44.2687 42.2117 44.2964C42.2295 44.2964 42.26 44.2662 42.2702 44.241C42.3744 44.0269 42.5676 43.9362 42.7608 43.8078C43.3379 43.4224 43.9023 43.0093 44.4031 42.5232C44.4972 42.4326 44.5836 42.2814 44.7158 42.5333C44.7641 42.3746 44.6548 42.1782 44.8404 42.158C45.0438 42.1354 45.0895 41.9842 45.1963 41.8684C45.3921 41.6543 45.5954 41.4427 45.8192 41.2563C46.1293 40.9944 46.3225 40.6392 46.5844 40.3395C46.6759 40.2337 46.9047 40.2463 46.8793 40.0171C46.8666 39.9013 46.9734 39.7577 47.103 39.7678C47.2454 39.7778 47.1437 39.9491 47.2022 40.0297C47.2123 40.0423 47.2327 40.0473 47.2581 40.0599C47.3216 39.9265 47.3649 39.7804 47.2632 39.662C47.1589 39.5411 47.2352 39.4857 47.2988 39.4C47.4818 39.1457 47.7182 38.9366 47.8759 38.6621C48.0919 38.2868 48.303 37.9065 48.5445 37.5463C48.8343 37.1156 49.0326 36.6421 49.2258 36.1736C49.4775 35.5716 49.6783 34.9445 49.8639 34.3148C50.0622 33.6398 50.2046 32.9622 50.2935 32.2696C50.319 32.0681 50.3469 31.8767 50.6342 31.8666C50.7766 31.8616 50.8681 31.7507 50.8681 31.5946C50.924 31.509 51.0232 31.4888 51.1071 31.446C51.6054 31.1866 52.1011 30.9221 52.6095 30.6853C53.3239 30.3504 54.0332 29.9977 54.7705 29.7106C55.2713 29.5141 55.7772 29.3303 56.2806 29.1389C56.5221 29.0935 56.7738 29.0834 56.9746 28.9147C57.0127 28.9122 57.0483 28.9097 57.0865 28.9071C57.3153 28.9474 57.5136 28.8291 57.7246 28.7862C58.2407 28.683 58.7745 28.6553 59.2703 28.4563H59.2728C59.8092 28.4513 60.3431 28.4487 60.8795 28.4487C60.9405 28.4512 60.999 28.4538 61.06 28.4588C61.2253 28.5243 61.3931 28.5772 61.5761 28.5621C61.599 28.5646 61.6193 28.5671 61.6422 28.5721C61.7515 28.7661 61.9549 28.6679 62.11 28.7082C62.5015 28.8114 62.8701 28.9701 63.2387 29.1313C63.3557 30.096 63.3302 31.0657 63.2896 32.0303C63.2616 32.6852 63.2514 33.3501 63.0913 33.9974C63.0099 34.3249 63.0099 34.6699 62.9591 35.0049C62.8676 35.5892 62.7659 36.1736 62.6159 36.7453C62.4659 37.3272 62.3184 37.909 62.143 38.4832C61.9905 38.9794 61.7998 39.4655 61.6193 39.9516C61.4541 40.3924 61.2176 40.808 61.0371 41.2362C60.849 41.6795 60.6533 42.1202 60.4143 42.5333C59.9897 43.2637 59.6287 44.0294 59.1508 44.7346C58.7949 45.2585 58.4517 45.8001 58.0856 46.3214C57.9 46.5834 57.6915 46.8453 57.4703 47.0896C57.2466 47.339 57.0204 47.5984 56.8373 47.878C56.6161 48.213 56.3263 48.4875 56.0416 48.7495C55.7213 49.0441 55.4874 49.4068 55.1696 49.7015C54.5696 50.2582 54.018 50.8702 53.4002 51.4067C52.8739 51.8626 52.2994 52.2706 51.6969 52.6308C51.5596 52.7139 51.4757 52.8348 51.3664 52.9355C51.0511 53.2277 50.6876 53.4292 50.291 53.5904C50.0342 53.6962 49.8537 53.9128 49.6275 54.0639C49.1266 54.3964 48.6055 54.6886 48.0767 54.9631C47.647 55.1873 47.2047 55.3963 46.742 55.5625C46.4903 55.6532 46.2819 55.9101 45.9997 55.9857C45.4429 56.1368 44.9548 56.4466 44.398 56.6154C44.0472 56.7237 43.6913 56.8798 43.3328 57.0007C42.7812 57.1871 42.2269 57.371 41.6677 57.5322C41.1617 57.6783 40.6533 57.8193 40.1372 57.9125C39.5881 58.0132 39.0466 58.1568 38.4924 58.2475C38.1746 58.3004 37.8339 58.3356 37.5136 58.4011C37.0102 58.5019 36.484 58.6127 35.9501 58.5699C35.7976 58.5573 35.5815 58.5271 35.5637 58.7865C35.1061 58.8847 34.6383 58.8797 34.1731 58.9099C32.9096 58.8847 31.6461 58.9552 30.3826 58.9502C29.7521 58.9502 29.1216 58.9023 28.4886 58.9124C28.4479 58.9124 28.4047 58.9124 28.364 58.9099C28.1606 58.8318 27.9547 58.7764 27.7335 58.7966L27.7259 58.8016Z" fill="#3254A3"/>
<path d="M1.76687 20.8171C1.83043 20.7768 1.82026 20.7088 1.82534 20.6484C1.97534 20.6232 1.92703 20.5048 1.9372 20.4141C1.90161 20.2907 2.04652 20.2403 2.05415 20.1345C2.12787 20.0741 2.16347 19.9935 2.16855 19.9003C2.20668 19.7895 2.24736 19.6761 2.28549 19.5653C2.35922 19.5049 2.39227 19.4243 2.3999 19.3311C2.3999 19.2958 2.3999 19.258 2.40244 19.2228C2.57531 19.1699 2.58802 19.0137 2.63124 18.8777C2.63124 18.8399 2.63124 18.8022 2.63378 18.7669C2.7431 18.6762 2.75073 18.5528 2.75073 18.4269C2.86004 18.4168 2.86259 18.3362 2.86259 18.2556C2.93885 18.2203 2.97953 18.1624 2.97699 18.0768C2.99478 18.039 3.01258 18.0012 3.03038 17.9634C3.10664 17.9559 3.18291 17.9458 3.09139 17.8501C3.09139 17.8148 3.09393 17.777 3.09647 17.7418C3.17274 17.7065 3.21342 17.6486 3.20833 17.563C3.52103 16.9837 3.7956 16.3792 4.15406 15.8301C4.58878 15.1626 4.96758 14.4624 5.44552 13.8151C5.82432 13.3013 6.22091 12.7951 6.57937 12.2661C7.18697 11.372 7.93694 10.6164 8.68945 9.85573C8.9513 9.59127 9.1979 9.30917 9.43941 9.02456C9.65805 8.77017 9.95804 8.61653 10.1996 8.38985C10.5046 8.10272 10.7944 7.78788 11.1249 7.53853C11.402 7.32947 11.6791 7.11538 11.9537 6.90129C12.6681 6.34466 13.3977 5.8107 14.1731 5.3397C14.8697 4.91656 15.5815 4.52112 16.2933 4.12569C16.812 3.83856 17.3458 3.57157 17.8772 3.32222C18.4212 3.06783 18.95 2.76811 19.522 2.56913C19.939 2.42305 20.361 2.28955 20.7703 2.11576C21.1364 1.96212 21.5228 1.84878 21.9016 1.72285C22.5676 1.50624 23.2413 1.30474 23.915 1.1234C24.3676 1.0025 24.8303 0.876563 25.298 0.793446C25.3413 0.78589 25.3819 0.758184 25.4251 0.740553C25.8395 0.715366 26.2514 0.677586 26.6404 0.51387C26.6963 0.51387 26.7522 0.51387 26.8081 0.511352C27.0471 0.51387 27.2861 0.528982 27.5022 0.39801C27.5378 0.39801 27.5759 0.39801 27.6115 0.39801C28.3157 0.387935 29.0148 0.34008 29.7114 0.241851C29.9834 0.201551 30.2656 0.229257 30.5453 0.229257C31.3308 0.229257 32.1189 0.219182 32.9045 0.229257C33.7333 0.241851 34.5595 0.289706 35.3883 0.390454C35.7798 0.438309 36.1764 0.486165 36.5704 0.501277C36.7611 0.508833 36.906 0.609581 37.084 0.639805C37.3611 0.685142 37.6636 0.677586 37.9102 0.770778C38.139 0.856414 38.3551 0.884119 38.5864 0.924419C39.2627 1.04028 39.9287 1.20399 40.5821 1.41305C41.2126 1.61454 41.8685 1.73292 42.4786 1.98983C42.7634 2.11073 43.1167 2.09561 43.315 2.40793C43.3583 2.47594 43.5362 2.33237 43.5769 2.41297C43.7142 2.67492 43.9735 2.5515 44.1667 2.62958C44.7362 2.8613 45.2878 3.13332 45.8471 3.38267C46.8971 3.85115 47.8784 4.43549 48.8597 5.02234C49.4343 5.36489 49.9961 5.7301 50.5198 6.1482C50.863 6.42022 51.252 6.62676 51.5621 6.94411C51.7248 7.11035 51.9384 7.22369 52.1316 7.3597C52.185 7.39748 52.2536 7.4277 52.2892 7.4806C52.574 7.88107 53.0595 8.06745 53.3671 8.42007C54.0129 9.15805 54.8366 9.71972 55.3959 10.5584C55.6145 10.8884 55.9704 11.1806 56.2577 11.4954C56.6187 11.8934 56.9238 12.3392 57.211 12.7925C57.3661 13.0368 57.5695 13.2484 57.7322 13.4953C57.9864 13.8781 58.2534 14.2483 58.5 14.6387C58.6474 14.873 58.8203 15.1022 58.9652 15.3415C59.6643 16.485 60.2872 17.6662 60.7931 18.9105C61.1897 19.8877 61.6117 20.8549 61.9447 21.8548C62.021 22.0815 62.0591 22.3309 62.1252 22.5626C62.4481 23.696 62.7125 24.842 62.9235 26.0006C63.0277 26.5824 63.0659 27.1794 63.132 27.7687C63.0659 27.7763 62.9845 27.7587 62.9362 27.7914C62.7328 27.9199 62.5879 27.8493 62.3947 27.7335C62.1151 27.5647 61.8278 27.2851 61.4464 27.5395C61.4185 27.5572 61.3676 27.5521 61.3346 27.542C61.0549 27.4665 60.7575 27.7587 60.4855 27.5043C60.4778 27.4967 60.4499 27.5093 60.4295 27.5143C60.1931 27.5748 59.9541 27.532 59.7152 27.542C59.6414 27.5446 59.5626 27.5572 59.5143 27.4715C59.3796 27.2398 59.2118 27.3103 59.0288 27.4186C58.7999 27.5546 58.5813 27.7184 58.2788 27.5572C58.1771 27.5017 58.0042 27.4967 57.8924 27.5874C57.7017 27.741 57.4271 27.7335 57.2568 27.935C57.1831 28.0206 57.0458 28.0181 56.9314 27.9753C56.7839 27.9199 56.6721 27.9249 56.6187 28.1062C56.5856 28.2196 56.4738 28.2901 56.3746 28.2599C56.2043 28.2095 56.1128 28.3178 55.9857 28.3682C55.7594 28.4538 55.5764 28.7334 55.2764 28.5369C55.1899 28.479 55.0806 28.5495 55.0654 28.6251C55.0094 28.9021 54.7679 28.9273 54.5696 28.9853C54.3535 29.0482 54.1603 29.1389 54.0027 29.2951C53.9391 29.358 53.8908 29.3857 53.8095 29.3202C53.662 29.1994 53.5781 29.2623 53.512 29.421C53.4409 29.5998 53.296 29.7006 53.1027 29.6502C52.7468 29.5545 52.4799 29.756 52.213 29.9121C52.0528 30.0053 51.8799 30.0456 51.7553 29.9827C51.4706 29.8416 51.3003 29.9827 51.1401 30.159C50.985 30.3328 50.8986 30.2723 50.8401 30.0985C50.7689 29.8895 50.7181 29.6754 50.6545 29.4563C50.5427 29.5192 50.6012 29.6175 50.5783 29.693C50.5605 29.7484 50.5427 29.8089 50.469 29.7963C50.4054 29.7862 50.4079 29.7258 50.413 29.6829C50.4817 29.2271 50.23 28.7989 50.291 28.3405C50.3037 28.2523 50.319 28.1415 50.1791 28.1188C50.1791 27.9853 50.202 27.8493 50.1741 27.7234C50.1258 27.5068 50.1639 27.2549 49.9503 27.0937C49.9097 26.459 49.6885 25.8797 49.4419 25.2979C49.3021 24.9654 49.1089 24.6607 48.9944 24.3106C48.9233 24.0889 48.8063 23.8093 48.5089 23.7262C48.4707 23.633 48.4301 23.5373 48.3919 23.4441C48.397 23.4366 48.3996 23.429 48.4046 23.4189C48.3996 23.4265 48.3945 23.434 48.3919 23.4416C48.1911 23.1671 47.9191 22.9479 47.7589 22.6432C47.7589 22.5676 47.7182 22.5324 47.6445 22.5298C47.4818 22.2603 47.2352 22.0765 46.981 21.9027C46.6708 21.6886 46.4624 21.3435 46.0759 21.2277C46.0073 21.2075 45.9539 21.1219 45.8853 21.1093C45.7022 21.0765 45.6692 20.8625 45.4887 20.8171C45.0336 20.7013 44.6548 20.3864 44.187 20.3058C43.8286 20.2429 43.5947 19.9381 43.2159 19.8726C42.9845 19.8323 42.7354 19.8222 42.499 19.7391C41.9473 19.5452 41.3702 19.4167 40.7906 19.3538C40.3762 19.3084 39.9669 19.2127 39.5474 19.19C39.3059 19.1774 39.0593 19.1699 38.8203 19.1422C38.4517 19.1019 38.0882 19.0011 37.7119 19.0565C37.4399 19.0968 37.2162 18.8727 36.9772 18.8979C36.6772 18.9306 36.3899 18.8802 36.1001 18.8828C35.3908 18.8853 34.6815 18.8828 33.9722 18.8828C33.8248 18.8828 33.7028 18.8777 33.7155 18.6787C33.7231 18.5402 33.6163 18.5402 33.5172 18.5402C32.424 18.5402 31.3308 18.5402 30.2376 18.5402C30.169 18.5402 30.0597 18.51 30.0546 18.6208C30.0495 18.7291 30.1563 18.7543 30.2402 18.7568C31.1173 18.7619 31.9944 18.7619 32.874 18.7694C32.9604 18.7694 33.0545 18.7367 33.174 18.8248C32.1393 18.8248 31.1402 18.8752 30.1512 18.8072C29.5004 18.7619 28.875 18.9029 28.2343 18.913C27.7996 18.9205 27.6115 18.9281 27.1844 18.7921C26.9403 18.714 26.6531 18.7442 26.3887 18.8399C26.5437 18.8828 26.6988 18.8777 26.8539 18.8853C26.9353 18.8903 27.0802 18.8324 27.0725 18.981C27.0649 19.0943 26.9353 19.049 26.8564 19.054C26.3302 19.0742 25.8141 19.0188 25.2777 19.1397C24.7616 19.2555 24.215 19.321 23.6735 19.3563C23.3507 19.3789 23.0227 19.4419 22.7024 19.5074C22.438 19.5628 22.1685 19.6081 21.9041 19.6711C21.5304 19.7593 21.1364 19.8172 20.783 19.9431C20.2618 20.127 19.7584 20.3587 19.2169 20.4821C19.1992 20.399 19.3415 20.3562 19.283 20.2832C19.2347 20.2227 19.1331 20.2353 19.067 20.2655C18.9754 20.3083 18.8432 20.3638 18.8229 20.4393C18.7644 20.6509 18.617 20.7239 18.4416 20.8045C18.3424 20.8473 18.2814 20.9733 18.1517 20.8625C18.1187 20.8347 18.078 20.87 18.0755 20.9128C18.0704 21.0413 17.9509 21.069 17.8797 21.142C17.4984 21.54 16.9289 21.6382 16.5298 22.0462C16.0061 22.5802 15.5332 23.1595 15.0044 23.6859C14.9485 23.7413 14.9053 23.8093 14.9078 23.8874C14.9129 24.0184 14.8493 24.1015 14.7477 24.167C14.4985 24.3282 14.3002 24.5121 14.4222 24.847C14.4324 24.8722 14.4095 24.9302 14.3841 24.9478C14.1629 25.1039 14.1172 25.3583 14.046 25.5875C14.0002 25.7286 13.7867 25.6984 13.8096 25.8772C13.8604 26.2852 13.6291 26.6353 13.5528 27.0207C13.4689 27.4388 13.3291 27.8493 13.296 28.2775C13.2833 28.4337 13.2198 28.474 13.0825 28.4664C12.9808 28.4614 12.8511 28.479 12.9096 28.61C13.0215 28.8618 12.9757 29.1288 12.991 29.3782C13.0342 30.0204 13.0062 30.6703 13.0037 31.3151C13.0037 31.4083 13.0291 31.509 12.9554 31.5871C12.8435 31.7105 12.8486 31.8868 12.9045 31.9901C13.0367 32.2445 12.991 32.5039 13.0062 32.7633C13.0113 32.8414 12.9782 32.9648 13.1155 32.9472C13.2426 32.9296 13.2299 32.8288 13.2045 32.7255C13.1689 32.5694 13.1359 32.4082 13.2731 32.1815C13.2859 32.9321 13.6824 33.5517 13.4842 34.267C13.6011 34.131 13.6672 34.068 13.7206 34.267C13.8146 34.6196 13.8985 34.9773 14.0257 35.3173C14.2545 35.9218 14.6053 36.486 14.6561 37.1509C14.7477 37.2063 14.7553 36.9318 14.8239 37.0879C14.8926 37.2466 15.0222 37.3574 15.0883 37.5186C15.3044 38.0627 15.6502 38.5387 15.9425 39.0424C16.2247 39.5285 16.6162 39.9592 16.9772 40.3975C17.2187 40.6922 17.4831 40.9692 17.7196 41.269C17.9382 41.546 18.2433 41.7576 18.5102 41.9944C18.7797 42.2311 19.0314 42.4931 19.3288 42.692C19.5169 42.818 19.5881 42.8809 19.3542 43.0245C19.5068 43.0824 19.6237 43.0648 19.7381 42.9993L19.7432 43.0044C19.8423 43.0875 19.9669 43.1278 20.0737 43.2084C20.4296 43.4804 20.7754 43.7675 21.177 43.9715C21.2253 44.1025 21.2177 44.2536 21.3143 44.3695C21.3524 44.4173 21.3677 44.4929 21.3245 44.5282C21.0092 44.7674 21.2304 45.2435 20.8898 45.4752C20.8135 45.5256 20.8186 45.6515 20.8465 45.7447C20.9203 45.9815 20.7804 46.0621 20.5872 46.0772C20.4525 46.0872 20.4321 46.1603 20.361 46.256C20.0864 46.6212 19.9593 47.0746 19.6618 47.4121C19.5169 47.5783 19.3593 47.7168 19.3161 47.941C19.3085 47.9763 19.2907 48.0317 19.2653 48.0392C18.9398 48.145 18.8865 48.5354 18.5916 48.6739C18.4822 48.7243 18.3882 48.7772 18.4416 48.9309C18.4899 49.0643 18.3856 49.1248 18.2814 49.1525C18.1594 49.1878 18.0856 49.281 18.0907 49.3741C18.106 49.6714 17.9051 49.8703 17.7907 50.1096C17.7475 50.1978 17.7196 50.2834 17.7246 50.3816C17.7246 50.4295 17.7246 50.5126 17.7094 50.5176C17.2874 50.6083 17.5263 51.2204 17.0815 51.2934C17.023 51.3035 17.0433 51.3916 17.0331 51.447C17.023 51.5125 17.0255 51.6007 16.9848 51.6359C16.601 51.9684 16.6137 52.4847 16.3849 52.8852C16.3671 52.918 16.3467 52.9633 16.3162 52.9734C16.0239 53.0867 16.0544 53.3008 16.1052 53.5476C16.151 53.7668 16.1179 53.9632 15.8815 54.1068C15.729 54.1975 15.5841 54.3335 15.579 54.5602C15.5764 54.6987 15.429 54.7919 15.307 54.739C15.0807 54.6382 14.8163 54.613 14.6282 54.4267C14.5392 54.3385 14.4731 54.1924 14.3002 54.268C14.2875 54.273 14.257 54.268 14.2468 54.2579C13.9392 53.9078 13.413 53.8776 13.1231 53.5401C12.841 53.2101 12.3706 53.2001 12.1113 52.8046C11.9283 52.525 11.519 52.3915 11.2114 52.1926C11.1885 52.1775 11.1453 52.18 11.1326 52.1598C10.8682 51.6813 10.2758 51.5805 9.9682 51.1549C9.76991 50.8803 9.48772 50.6763 9.264 50.4219C9.11909 50.2582 8.84961 50.097 8.68182 49.9409C8.44031 49.7192 8.16574 49.5051 7.95982 49.2381C7.67 48.8654 7.27087 48.5858 7.01156 48.1878C6.86156 47.9612 6.61496 47.8151 6.49802 47.5632C6.48022 47.3693 6.51073 47.1401 6.19803 47.1602C6.14465 47.1627 6.12685 47.1124 6.0938 47.0796C5.75568 46.7471 5.47349 46.3567 5.23452 45.9638C4.95233 45.5004 4.53794 45.1201 4.33456 44.6264C4.22015 44.3493 4.01423 44.1604 3.88458 43.9086C3.53629 43.2361 3.12952 42.5913 2.81683 41.9037C2.63378 41.5007 2.4304 41.1027 2.27278 40.6821C2.11516 40.2565 1.95754 39.8258 1.78467 39.4026C1.62451 39.0097 1.48214 38.6067 1.3474 38.2012C1.19741 37.7529 1.12368 37.2869 0.94318 36.8486C0.861828 36.6497 0.859286 36.4154 0.805898 36.1963C0.666074 35.6145 0.54913 35.0251 0.465235 34.4332C0.409305 34.0327 0.340664 33.6348 0.330495 33.2242C0.3127 32.3754 0.137284 31.5342 0.170333 30.6854C0.218636 29.4689 0.183044 28.2448 0.399136 27.0408C0.551672 26.1819 0.671158 25.3155 0.861828 24.4592C0.968603 23.9756 1.14402 23.4945 1.13893 22.9857C1.25334 22.895 1.25842 22.7716 1.25334 22.6432C1.43638 22.482 1.3474 22.2654 1.37028 22.0739C1.5279 22.0538 1.47451 21.9329 1.48214 21.8422C1.48214 21.7692 1.48468 21.6936 1.48722 21.6206C1.68552 21.477 1.72365 21.2705 1.71349 21.0463C1.71349 20.9909 1.71603 20.9355 1.71857 20.8776C1.73891 20.8599 1.7567 20.8398 1.77704 20.8222L1.76687 20.8171Z" fill="#35B1DC"/>
<path d="M47.7538 22.6407C47.9165 22.9454 48.186 23.1646 48.3868 23.4391C48.425 23.5348 48.4657 23.628 48.5038 23.7212C48.4834 23.7464 48.4606 23.769 48.4402 23.7942C48.3309 23.7363 48.2877 23.6255 48.2267 23.5323C47.5479 22.5349 46.6912 21.7188 45.6234 21.1496C44.1311 20.3512 42.5244 19.8726 40.8643 19.5603C39.8169 19.3638 38.7542 19.2858 37.6941 19.2178C35.3222 19.0641 32.9477 18.9432 30.5681 19.0188C28.1149 19.0969 25.6692 19.2203 23.2439 19.6359C21.4541 19.9431 19.7203 20.4091 18.0984 21.2302C17.1704 21.6987 16.3645 22.3359 15.7035 23.1394C15.0705 23.9101 14.5926 24.774 14.1604 25.6631C13.835 26.3306 13.7079 27.0685 13.5375 27.7813C13.446 28.1642 13.446 28.5848 13.4053 28.9878C13.1943 31.0934 13.5096 33.1285 14.196 35.1183C14.5443 36.1283 15.0273 37.0728 15.5535 37.9972C16.6467 39.9114 18.0475 41.5611 19.8551 42.8507C20.3813 43.226 20.9152 43.5937 21.4465 43.9665C21.4287 43.9867 21.4084 44.0043 21.3906 44.0244C21.3194 43.9841 21.2431 43.9589 21.1592 43.9665C20.7576 43.7625 20.4093 43.4754 20.0559 43.2033C19.9491 43.1227 19.8245 43.0824 19.7254 42.9993C19.7279 42.9892 19.733 42.9817 19.7356 42.9716C19.7305 42.9792 19.7254 42.9867 19.7203 42.9943C19.6059 43.0573 19.489 43.0774 19.3364 43.0195C19.5729 42.8759 19.4991 42.8155 19.311 42.687C19.0161 42.488 18.7619 42.2261 18.4924 41.9893C18.2229 41.7526 17.9204 41.541 17.7018 41.2639C17.4628 40.9617 17.2009 40.6872 16.9594 40.3925C16.5984 39.9542 16.2095 39.5235 15.9247 39.0374C15.6324 38.5337 15.2866 38.0576 15.0705 37.5136C15.007 37.3524 14.8773 37.2416 14.8061 37.0829C14.7375 36.9293 14.7299 37.2013 14.6383 37.1459C14.5875 36.4809 14.2367 35.9167 14.0079 35.3122C13.8782 34.9722 13.7968 34.6146 13.7028 34.2619C13.6494 34.0605 13.5833 34.1234 13.4664 34.2619C13.6646 33.5492 13.2681 32.9296 13.2553 32.1765C13.1155 32.4031 13.1511 32.5643 13.1867 32.7205C13.2096 32.8263 13.2248 32.9245 13.0977 32.9421C12.9604 32.9598 12.9935 32.8364 12.9884 32.7583C12.9732 32.4989 13.0189 32.2394 12.8867 31.985C12.8333 31.8818 12.8257 31.7055 12.9376 31.5821C13.0113 31.5015 12.9859 31.4007 12.9859 31.31C12.9859 30.6627 13.0164 30.0154 12.9732 29.3732C12.9554 29.1213 13.0011 28.8543 12.8918 28.6049C12.8333 28.474 12.9655 28.4538 13.0647 28.4614C13.2045 28.4689 13.2681 28.4286 13.2782 28.2725C13.3113 27.8443 13.4511 27.4338 13.535 27.0156C13.6113 26.6303 13.8451 26.2802 13.7918 25.8722C13.7689 25.6933 13.985 25.7236 14.0282 25.5825C14.1019 25.3533 14.1451 25.0989 14.3663 24.9428C14.3917 24.9251 14.4146 24.8697 14.4044 24.842C14.2824 24.5045 14.4807 24.3206 14.7299 24.162C14.8315 24.0965 14.8976 24.0134 14.89 23.8824C14.8875 23.8043 14.9307 23.7363 14.9866 23.6809C15.518 23.1545 15.9883 22.5752 16.512 22.0412C16.9111 21.6332 17.4831 21.535 17.8619 21.137C17.9306 21.064 18.0526 21.0363 18.0577 20.9078C18.0577 20.865 18.1009 20.8272 18.1339 20.8574C18.2636 20.9682 18.3272 20.8448 18.4238 20.7995C18.6017 20.7214 18.7492 20.6459 18.8051 20.4343C18.8254 20.3587 18.9576 20.3008 19.0492 20.2605C19.1153 20.2303 19.2169 20.2177 19.2652 20.2781C19.3237 20.3512 19.1788 20.3915 19.1991 20.4746C19.1331 20.4897 19.0492 20.4418 19.0059 20.5275C19.0009 20.5375 19.0288 20.5753 19.0492 20.5804C19.1356 20.603 19.1915 20.5728 19.2017 20.4796C19.7432 20.3562 20.2491 20.1245 20.7677 19.9406C21.1211 19.8172 21.5151 19.7593 21.8889 19.6686C22.1533 19.6056 22.4227 19.5603 22.6871 19.5049C23.0075 19.4394 23.3379 19.3739 23.6583 19.3538C24.1998 19.316 24.7464 19.253 25.2624 19.1372C25.8014 19.0163 26.3175 19.0717 26.8412 19.0515C26.92 19.049 27.0497 19.0918 27.0573 18.9785C27.0649 18.8299 26.9225 18.8878 26.8386 18.8828C26.6836 18.8752 26.5285 18.8828 26.3734 18.8374C26.6378 18.7417 26.9251 18.7115 27.1691 18.7896C27.5962 18.9256 27.7844 18.918 28.2191 18.9105C28.8597 18.9004 29.4851 18.7593 30.136 18.8047C31.1249 18.8727 32.124 18.8223 33.1587 18.8223C33.0392 18.7342 32.9452 18.7669 32.8587 18.7669C31.9816 18.7619 31.1046 18.7619 30.2249 18.7543C30.141 18.7543 30.0343 18.7266 30.0394 18.6183C30.0444 18.5075 30.1512 18.5377 30.2224 18.5377C31.3156 18.5377 32.4087 18.5377 33.5019 18.5377C33.6011 18.5377 33.7078 18.5377 33.7002 18.6762C33.6875 18.8752 33.8095 18.8802 33.957 18.8802C34.6663 18.8777 35.3756 18.8802 36.0848 18.8802C36.3772 18.8802 36.6645 18.9281 36.9619 18.8954C37.2034 18.8702 37.4246 19.0918 37.6966 19.054C38.0729 18.9986 38.4364 19.0994 38.8051 19.1397C39.044 19.1674 39.2906 19.1749 39.5322 19.1875C39.9516 19.2102 40.3609 19.3059 40.7753 19.3512C41.355 19.4142 41.932 19.5427 42.4837 19.7366C42.7201 19.8197 42.9718 19.8298 43.2006 19.8701C43.5794 19.9356 43.8133 20.2403 44.1718 20.3033C44.6396 20.3839 45.0183 20.7013 45.4734 20.8146C45.6565 20.8599 45.687 21.074 45.87 21.1068C45.9386 21.1194 45.992 21.205 46.0607 21.2252C46.4471 21.341 46.6556 21.6861 46.9657 21.9002C47.2174 22.074 47.464 22.2603 47.6293 22.5273C47.6318 22.6004 47.6699 22.6381 47.7437 22.6407H47.7538ZM13.2147 28.9601C13.2045 28.9248 13.2045 28.877 13.1511 28.8896C13.1079 28.8996 13.1028 28.9425 13.1079 28.9802C13.113 29.0155 13.1155 29.0659 13.1715 29.0508C13.2147 29.0407 13.2172 28.9979 13.2172 28.9601H13.2147ZM13.1231 31.1866V31.5292C13.1689 31.436 13.174 31.3478 13.1231 31.1866ZM13.1587 30.8239C13.1486 30.8088 13.1409 30.7962 13.1308 30.7811C13.1231 30.7962 13.1079 30.8113 13.1079 30.8239C13.1079 30.839 13.1231 30.8516 13.1308 30.8667C13.1384 30.8516 13.1486 30.839 13.1562 30.8239H13.1587Z" fill="#38A3C6"/>
<path d="M21.3931 44.0269C21.4109 44.0068 21.4313 43.9891 21.4491 43.969C22.0567 44.3015 22.6668 44.6364 23.2769 44.9689C23.338 45.0017 23.3863 45.0445 23.4168 45.1049C23.3278 45.1377 23.338 45.2107 23.3456 45.2812C23.282 45.3417 23.2032 45.3291 23.1269 45.3215C23.1498 45.2233 23.1702 45.1603 23.0456 45.0772C22.5982 44.7674 22.1151 44.5206 21.6499 44.241C21.5507 44.1831 21.444 44.1403 21.3931 44.0269Z" fill="#4FA2C2"/>
<path d="M15.7569 54.5702C15.7569 54.5173 15.7824 54.4745 15.8357 54.4745C15.8917 54.4745 15.9196 54.5097 15.912 54.5677C15.9069 54.6206 15.8739 54.6609 15.8256 54.6659C15.7646 54.6709 15.7518 54.6206 15.7544 54.5702H15.7569Z" fill="#35B1DC"/>
<path d="M15.8027 54.9027C15.8154 54.9279 15.8357 54.948 15.8357 54.9707C15.8357 55.0211 15.7976 55.0261 15.762 55.0161C15.7442 55.011 15.734 54.9808 15.7188 54.9632C15.7391 54.948 15.7569 54.9355 15.8027 54.9027Z" fill="#35B1DC"/>
<path d="M6.48334 47.5632C6.48334 47.5632 6.47537 47.5791 6.47005 47.587C6.47537 47.5791 6.47803 47.5712 6.48334 47.5632Z" fill="#35B1DC"/>
<path d="M50.1741 28.1163C50.3139 28.139 50.2986 28.2498 50.2859 28.3379C50.2249 28.7938 50.4766 29.222 50.4079 29.6804C50.4003 29.7232 50.4003 29.7862 50.4639 29.7937C50.5376 29.8038 50.5554 29.7459 50.5732 29.6905C50.5986 29.6174 50.5376 29.5192 50.6495 29.4537C50.713 29.6728 50.7639 29.8869 50.835 30.096C50.8935 30.2698 50.98 30.3302 51.135 30.1564C51.2952 29.9801 51.4655 29.8391 51.7503 29.9801C51.8748 30.0431 52.0477 30.0053 52.2079 29.9096C52.4748 29.7534 52.7417 29.5519 53.0977 29.6477C53.2909 29.7006 53.4358 29.5973 53.507 29.4185C53.5705 29.2598 53.657 29.1968 53.8044 29.3177C53.8858 29.3857 53.9341 29.3555 53.9976 29.2925C54.1578 29.1364 54.3484 29.0482 54.5645 28.9827C54.7628 28.9248 55.0044 28.9021 55.0603 28.6225C55.0755 28.547 55.1849 28.4765 55.2713 28.5344C55.5713 28.7334 55.7569 28.4513 55.9806 28.3656C56.1102 28.3178 56.2018 28.207 56.3695 28.2573C56.4687 28.2876 56.5806 28.217 56.6136 28.1037C56.667 27.9249 56.7788 27.9198 56.9263 27.9727C57.0407 28.0155 57.178 28.0206 57.2517 27.9324C57.422 27.7309 57.6941 27.736 57.8873 27.5848C57.9991 27.4967 58.1695 27.5017 58.2737 27.5546C58.5762 27.7158 58.7949 27.5521 59.0237 27.4161C59.2042 27.3078 59.372 27.2373 59.5092 27.469C59.5601 27.5546 59.6389 27.542 59.7101 27.5395C59.949 27.5294 60.188 27.5723 60.4244 27.5118C60.4422 27.5068 60.4702 27.4942 60.4804 27.5017C60.7524 27.7561 61.0498 27.4639 61.3295 27.5395C61.3651 27.5496 61.4159 27.5546 61.4414 27.537C61.8227 27.2826 62.11 27.5622 62.3896 27.7309C62.5828 27.8468 62.7277 27.9198 62.9311 27.7889C62.982 27.7561 63.0608 27.7712 63.1269 27.7662C63.2159 28.0155 63.2235 28.2775 63.2336 28.5344C63.2387 28.7157 63.1269 28.8518 62.9235 28.7888C62.682 28.7132 62.3718 28.7888 62.2244 28.4891C62.1989 28.4387 62.1125 28.4412 62.0718 28.484C61.9422 28.6125 61.7846 28.552 61.6371 28.5646C61.6142 28.5621 61.5939 28.5596 61.571 28.5545C61.4363 28.3354 61.2253 28.5016 61.0549 28.4513C60.9939 28.4488 60.9354 28.4462 60.8744 28.4412C60.338 28.2573 59.8041 28.2876 59.2677 28.4488H59.2652C58.6347 28.4009 58.0474 28.6301 57.4449 28.7485C57.328 28.7712 57.1398 28.7082 57.0814 28.8996C57.0432 28.9021 57.0077 28.9046 56.9695 28.9072C56.7102 28.8971 56.4509 28.8895 56.2755 29.1313C55.7721 29.3227 55.2662 29.5066 54.7654 29.7031C54.0281 29.9902 53.3214 30.3428 52.6045 30.6778C52.096 30.9171 51.6003 31.1815 51.102 31.4385C51.0181 31.4813 50.9189 31.5014 50.863 31.5871C50.8045 31.6173 50.7435 31.645 50.685 31.6752C50.3088 31.8641 50.291 31.854 50.2885 31.446C50.2834 30.839 50.2834 30.2345 50.2757 29.6275C50.2757 29.5368 50.3393 29.4084 50.1842 29.3656C50.1639 29.2774 50.141 29.1918 50.1207 29.1036C50.1207 28.7686 50.2071 28.4412 50.1741 28.1037V28.1163Z" fill="#2EA4CE"/>
<path d="M26.6327 0.516379C26.2438 0.677576 25.8319 0.715356 25.4175 0.743062C25.4226 0.705282 25.298 0.639795 25.4124 0.639795C25.8243 0.634758 26.2132 0.438299 26.6302 0.518898L26.6327 0.516379Z" fill="#38A3C6"/>
<path d="M27.4971 0.400556C27.281 0.531529 27.0395 0.516416 26.8031 0.513898C26.8412 0.347663 26.9785 0.410631 27.0776 0.403075C27.2174 0.393 27.3573 0.403075 27.4971 0.403075V0.400556Z" fill="#38A3C6"/>
<path d="M2.62616 18.8751C2.58294 19.0111 2.57277 19.1673 2.39736 19.2202C2.3821 19.0464 2.45329 18.928 2.62616 18.8751Z" fill="#2EA4CE"/>
<path d="M2.74565 18.4243C2.74565 18.5503 2.73802 18.6762 2.6287 18.7643C2.62362 18.6359 2.6287 18.51 2.74565 18.4243Z" fill="#2EA4CE"/>
<path d="M1.93466 20.4141C1.92449 20.5047 1.97534 20.6231 1.8228 20.6483C1.82534 20.5753 1.82788 20.5022 1.83043 20.4292C1.86348 20.4241 1.89907 20.4191 1.93212 20.4166L1.93466 20.4141Z" fill="#2EA4CE"/>
<path d="M3.20071 17.5604C3.20579 17.646 3.16511 17.7039 3.08885 17.7392C3.12189 17.6787 2.99478 17.5175 3.20071 17.5604Z" fill="#2EA4CE"/>
<path d="M2.39481 19.3311C2.38973 19.4242 2.35414 19.5048 2.28041 19.5653C2.29058 19.4746 2.24228 19.3537 2.39481 19.3311Z" fill="#2EA4CE"/>
<path d="M2.16346 19.9003C2.15838 19.9935 2.12279 20.0741 2.04906 20.1345C2.05669 20.0413 2.01347 19.9255 2.16346 19.9003Z" fill="#2EA4CE"/>
<path d="M2.9719 18.0742C2.97699 18.1599 2.93377 18.2178 2.8575 18.253C2.85496 18.1674 2.8575 18.0868 2.9719 18.0742Z" fill="#2EA4CE"/>
<path d="M3.08377 17.8475C3.17274 17.9432 3.09902 17.9533 3.02275 17.9609C3.04309 17.9231 3.06343 17.8853 3.08377 17.8475Z" fill="#2EA4CE"/>
<path d="M1.70332 21.0413C1.71349 21.2654 1.6779 21.472 1.47706 21.6155C1.4974 21.4014 1.52536 21.1924 1.70332 21.0413Z" fill="#2EA4CE"/>
<path d="M1.36011 22.0714C1.33978 22.2654 1.42876 22.4794 1.24317 22.6406C1.26351 22.4467 1.18216 22.2326 1.36011 22.0714Z" fill="#2EA4CE"/>
<path d="M1.24317 22.6406C1.24825 22.7691 1.24317 22.895 1.12876 22.9832C1.1669 22.8698 1.03979 22.7011 1.24317 22.6406Z" fill="#2EA4CE"/>
<path d="M1.47197 21.8372C1.46434 21.9278 1.51519 22.0487 1.36011 22.0689C1.37028 21.9782 1.32452 21.8598 1.47197 21.8372Z" fill="#2EA4CE"/>
<path d="M50.1842 29.3782C50.3393 29.421 50.2732 29.5494 50.2757 29.6401C50.2834 30.2446 50.2834 30.8516 50.2885 31.4586C50.291 31.8667 50.3088 31.8742 50.6851 31.6878C50.7435 31.6576 50.8045 31.6274 50.863 31.5997C50.863 31.7558 50.7715 31.8692 50.6291 31.8717C50.3444 31.8792 50.3164 32.0732 50.2885 32.2747C50.1995 32.9673 50.0571 33.6449 49.8588 34.3199C49.6732 34.9521 49.4724 35.5767 49.2207 36.1787C49.025 36.6471 48.8267 37.1232 48.5394 37.5514C48.2979 37.9115 48.0869 38.2919 47.8708 38.6671C47.7132 38.9417 47.4767 39.1533 47.2937 39.4051C47.2301 39.4908 47.1539 39.5487 47.2581 39.6671C47.3598 39.7854 47.3191 39.929 47.253 40.065C47.2276 40.0524 47.2072 40.0474 47.1971 40.0348C47.1386 39.9542 47.2403 39.7829 47.0979 39.7729C46.9683 39.7628 46.8615 39.9063 46.8742 40.0222C46.8996 40.2514 46.6708 40.2413 46.5793 40.3446C46.32 40.6443 46.1268 40.9995 45.8141 41.2614C45.5929 41.4478 45.3895 41.6594 45.1912 41.8734C45.087 41.9893 45.0412 42.1404 44.8353 42.1631C44.6497 42.1832 44.759 42.3797 44.7107 42.5384C44.5811 42.289 44.4921 42.4376 44.398 42.5283C43.8972 43.0144 43.3328 43.425 42.7557 43.8128C42.5651 43.9413 42.3693 44.032 42.2651 44.2461C42.2549 44.2687 42.2244 44.3015 42.2066 44.3015C41.7541 44.2738 41.4541 44.6037 41.1109 44.7977C40.4143 45.1931 39.6694 45.4676 38.9423 45.79C37.6102 46.3794 36.1916 46.6766 34.7705 46.9108C33.9214 47.0494 33.0468 47.0872 32.1774 47.1249C31.0639 47.1753 29.9758 46.994 28.875 46.9234C28.4428 46.8957 28.0233 46.7245 27.5912 46.664C27.0039 46.5834 26.4421 46.397 25.8878 46.2232C25.1887 46.0041 24.4743 45.79 23.8235 45.4374C23.671 45.3543 23.5134 45.2863 23.3354 45.2812C23.3278 45.2107 23.3202 45.1377 23.4066 45.1049C23.4625 45.1175 23.521 45.1251 23.5718 45.1478C25.0362 45.8177 26.5641 46.2787 28.1428 46.5885C30.347 47.0242 32.5613 47.0645 34.7756 46.7194C36.7509 46.4121 38.6424 45.8303 40.4397 44.9437C43.1218 43.6189 45.359 41.7903 47.1183 39.3774C48.1097 38.0173 48.9385 36.5817 49.4597 34.9747C49.8334 33.8237 50.0927 32.6525 50.2097 31.4485C50.2757 30.7584 50.2274 30.0683 50.1766 29.3782H50.1842Z" fill="#37508B"/>
<path d="M57.0814 28.9097C57.1398 28.7182 57.328 28.7812 57.4449 28.7585C58.0474 28.6427 58.6347 28.411 59.2652 28.4588C58.7694 28.6578 58.2356 28.688 57.7195 28.7888C57.5085 28.8316 57.3076 28.9474 57.0814 28.9097Z" fill="#38A3C6"/>
<path d="M59.2703 28.4563C59.8041 28.2976 60.3406 28.2649 60.877 28.4487C60.3406 28.4487 59.8067 28.4538 59.2703 28.4563Z" fill="#38A3C6"/>
<path d="M56.2755 29.1414C56.4534 28.8996 56.7102 28.9072 56.9695 28.9172C56.7687 29.086 56.5145 29.0961 56.2755 29.1414Z" fill="#38A3C6"/>
<path d="M61.0549 28.4588C61.2227 28.5117 61.4363 28.3429 61.571 28.562C61.3905 28.5746 61.2202 28.5243 61.0549 28.4588Z" fill="#38A3C6"/>
<path d="M48.4428 23.7967C48.4631 23.7715 48.486 23.7488 48.5063 23.7236C48.8038 23.8067 48.9207 24.0863 48.9919 24.308C49.1038 24.6581 49.2995 24.9628 49.4393 25.2953C49.6834 25.8771 49.9071 26.4564 49.9478 27.0911C49.9097 27.0911 49.8741 27.0911 49.8359 27.0911C49.7546 26.9904 49.7495 26.867 49.7139 26.7511C49.6021 26.3884 49.5207 26.0106 49.3682 25.6681C49.0834 25.0359 48.7555 24.4213 48.4479 23.7992L48.4428 23.7967Z" fill="#2EA4CE"/>
<path d="M49.9453 27.0887C50.1588 27.2499 50.1207 27.5018 50.169 27.7184C50.1969 27.8443 50.1741 27.9828 50.1741 28.1138C50.1334 28.1188 50.0597 28.1516 50.0698 28.0786C50.1105 27.736 49.8969 27.4262 49.9453 27.0862V27.0887Z" fill="#2EA4CE"/>
<path d="M47.7538 22.6407C47.6801 22.6382 47.642 22.6004 47.6394 22.5273C47.7131 22.5273 47.7538 22.5651 47.7538 22.6407Z" fill="#2EA4CE"/>
<path d="M48.3868 23.4402C48.3868 23.4402 48.3975 23.4243 48.4001 23.4164C48.3948 23.4243 48.3922 23.4322 48.3868 23.4428V23.4402Z" fill="#2EA4CE"/>
<path d="M48.4428 23.7968C48.7529 24.4189 49.0809 25.0309 49.3631 25.6656C49.5182 26.0107 49.5995 26.386 49.7088 26.7487C49.7444 26.8645 49.7495 26.9905 49.8308 27.0887C49.9224 27.7637 50.0851 28.4312 50.1181 29.1163C50.1385 29.2044 50.1613 29.2901 50.1817 29.3782C50.2325 30.0683 50.2808 30.7585 50.2147 31.4486C50.1003 32.6525 49.8385 33.8237 49.4648 34.9748C48.9436 36.5792 48.1174 38.0148 47.1233 39.3775C45.3666 41.7904 43.1269 43.6189 40.4448 44.9438C38.6474 45.8304 36.756 46.4122 34.7807 46.7195C32.5664 47.0645 30.3521 47.0242 28.1479 46.5885C26.5692 46.2762 25.0387 45.8153 23.5769 45.1478C23.5261 45.1251 23.4676 45.1201 23.4117 45.105C23.3812 45.0445 23.3354 45.0042 23.2719 44.969C22.6617 44.6365 22.0541 44.304 21.444 43.969C20.9126 43.5963 20.3813 43.2285 19.8525 42.8533C18.0424 41.5612 16.6442 39.9139 15.551 37.9997C15.0222 37.0754 14.5417 36.1308 14.1934 35.1208C13.5045 33.1311 13.1918 31.096 13.4028 28.9903C13.4435 28.5873 13.446 28.1667 13.535 27.7839C13.7028 27.0711 13.8324 26.3331 14.1579 25.6656C14.59 24.7765 15.068 23.9126 15.701 23.1419C16.362 22.3359 17.1679 21.7012 18.0958 21.2327C19.7178 20.4116 21.4516 19.9457 23.2413 19.6384C25.6667 19.2228 28.1149 19.0994 30.5656 19.0213C32.9452 18.9432 35.3196 19.0667 37.6916 19.2203C38.7517 19.2883 39.8143 19.3689 40.8618 19.5628C42.5219 19.8726 44.1311 20.3537 45.6209 21.1521C46.6861 21.7214 47.5454 22.5374 48.2241 23.5348C48.2877 23.628 48.3309 23.7388 48.4377 23.7968H48.4428ZM21.9321 24.5146C22.9642 24.502 23.9939 24.3635 25.0286 24.4667C25.1557 24.4793 25.1582 24.4088 25.1175 24.3282C24.8379 23.7917 24.4616 23.3711 23.8744 23.1293C22.9414 22.7465 22.0592 23.0311 21.1974 23.3207C20.3559 23.6054 19.6593 24.1569 18.9932 24.7312C18.9551 24.764 18.8966 24.8017 18.9373 24.8697C18.9627 24.8773 18.9907 24.8949 19.0136 24.8899C19.9745 24.6808 20.9584 24.6279 21.9321 24.5121V24.5146ZM24.4006 32.247L24.4998 32.1412C24.9192 31.6324 25.1531 31.0531 25.1913 30.3932C25.2955 28.5798 23.3863 26.998 21.5279 27.7839C20.3889 28.2649 19.3517 29.5545 19.9669 31.2849C20.2974 32.2092 20.905 32.8868 21.9194 33.0555C22.8702 33.2142 23.7574 33.0656 24.4006 32.2445V32.247ZM20.8415 38.8384C21.2711 38.8813 21.6702 38.7427 22.0592 38.5362C22.9286 38.0702 22.9668 36.8587 22.466 36.2996C21.8838 35.6498 20.6787 35.481 19.8347 35.9747C19.0314 36.4457 18.7771 37.2844 19.2576 38.0602C19.6059 38.6218 20.1423 38.8989 20.8415 38.841V38.8384ZM42.7151 38.841C42.9718 38.8536 43.2388 38.8233 43.5057 38.7226C44.0498 38.5161 44.6548 37.8562 44.5785 37.2038C44.4972 36.4986 43.976 35.8261 43.1244 35.7178C42.11 35.5868 41.3219 36.0729 41.0016 36.9948C40.9177 37.2391 40.9431 37.4909 41.0118 37.7479C41.1923 38.4304 41.9346 38.8964 42.7125 38.841H42.7151ZM25.3438 36.8537C25.8421 39.8283 28.092 42.4326 32.1443 42.3092C35.8967 42.1959 38.0551 39.7452 38.5356 36.9167C38.4441 36.9797 38.3678 37.0325 38.2915 37.088C37.8238 37.4204 37.3356 37.7201 36.8196 37.9695C35.584 38.5664 34.2595 38.8082 32.9019 38.8939C30.1563 39.0677 27.5734 38.642 25.3463 36.8537H25.3438ZM38.2737 30.3378C38.2559 31.9624 39.3872 33.1537 40.9609 33.1638C42.5066 33.1739 43.6659 31.7785 43.6837 30.4109C43.7015 28.945 42.4608 27.7108 40.9914 27.6554C39.6516 27.605 38.2331 29.0231 38.2763 30.3378H38.2737ZM44.5201 24.8874C44.5201 24.9025 44.5252 24.8723 44.5124 24.8496C44.487 24.8093 44.4591 24.7715 44.426 24.7388C43.4167 23.7414 42.2193 23.1192 40.7906 22.9606C39.8042 22.8523 38.8305 23.3887 38.4059 24.2678C38.3754 24.3282 38.3347 24.3912 38.378 24.4542C38.4161 24.5096 38.4822 24.4768 38.5381 24.4718C40.5592 24.2955 42.5422 24.5902 44.5226 24.8874H44.5201Z" fill="#FAFBFB"/>
<path d="M13.2147 28.9601C13.2147 28.9979 13.2147 29.0407 13.1689 29.0507C13.113 29.0633 13.1104 29.0155 13.1054 28.9802C13.1003 28.9424 13.1054 28.8996 13.1486 28.8896C13.202 28.877 13.202 28.9273 13.2121 28.9601H13.2147Z" fill="#35B1DC"/>
<path d="M19.2068 20.4746C19.1966 20.5677 19.1407 20.598 19.0542 20.5753C19.0364 20.5703 19.0085 20.5325 19.011 20.5224C19.0542 20.4368 19.1381 20.4846 19.2042 20.4695L19.2068 20.4746Z" fill="#35B1DC"/>
<path d="M13.1232 31.1865C13.174 31.3452 13.1689 31.4359 13.1232 31.5291V31.1865Z" fill="#35B1DC"/>
<path d="M13.1587 30.8239C13.1511 30.8391 13.141 30.8542 13.1333 30.8668C13.1257 30.8517 13.1104 30.8391 13.1104 30.8239C13.1104 30.8088 13.1257 30.7962 13.1333 30.7811C13.141 30.7962 13.1511 30.8088 13.1613 30.8239H13.1587Z" fill="#35B1DC"/>
<path d="M19.7203 42.9979C19.7203 42.9979 19.7309 42.982 19.7363 42.9741C19.7336 42.9847 19.7283 42.9926 19.7256 43.0032L19.7203 42.9979Z" fill="#35B1DC"/>
<path d="M50.1181 29.1162C50.0851 28.4311 49.9249 27.7662 49.8308 27.0886C49.869 27.0886 49.9046 27.0886 49.9427 27.0886C49.8944 27.4286 50.1079 27.7384 50.0673 28.081C50.0596 28.154 50.1308 28.1213 50.1715 28.1163C50.2046 28.4512 50.1181 28.7812 50.1181 29.1162Z" fill="#4FA2C2"/>
<path d="M24.4998 32.1412C24.4667 32.1765 24.4337 32.2117 24.4006 32.247C24.2633 32.1362 24.1176 32.1093 23.9633 32.1664C24.1998 32.2923 24.2074 32.3603 23.9633 32.5115C23.193 32.9875 22.3744 33.1008 21.5151 32.7835C21.1719 32.6576 20.9126 32.4032 20.6254 32.1916C20.4982 32.0984 20.6584 31.9145 20.4652 31.8768C20.3279 31.8516 20.2898 31.7231 20.2389 31.6098C20.0966 31.2924 20.1372 30.9272 19.972 30.6149C19.9059 30.4915 19.9212 30.3731 19.9262 30.2371C19.9389 29.9021 20.1093 29.6301 20.2059 29.3278C20.333 28.9299 20.6228 28.678 20.8491 28.3682C20.9533 28.2272 21.1491 28.2624 21.2762 28.1667C21.9728 27.6529 22.7354 27.6453 23.4879 27.9703C24.1667 28.2624 24.6599 28.7636 24.8913 29.5016C25.1531 30.3328 25.0006 31.0985 24.5964 31.8339C24.5379 31.9397 24.4972 32.0304 24.4998 32.1437V32.1412Z" fill="#0F6192"/>
<path d="M20.8415 38.8384C20.1398 38.8964 19.6034 38.6193 19.2576 38.0576C18.7797 37.2819 19.0314 36.4431 19.8347 35.9722C20.6762 35.481 21.8812 35.6472 22.466 36.2971C22.9693 36.8587 22.9312 38.0677 22.0592 38.5337C21.6702 38.7427 21.2711 38.8787 20.8415 38.8359V38.8384Z" fill="#77DBF1"/>
<path d="M42.7151 38.8409C41.9371 38.8963 41.1922 38.4304 41.0143 37.7478C40.9456 37.4909 40.9202 37.239 41.0041 36.9947C41.3219 36.0729 42.1125 35.5868 43.1269 35.7177C43.9786 35.8285 44.4997 36.4985 44.5811 37.2038C44.6573 37.8561 44.0523 38.516 43.5082 38.7225C43.2413 38.8233 42.9718 38.8535 42.7176 38.8409H42.7151Z" fill="#77DBF1"/>
<path d="M25.3438 36.8536C27.5708 38.6419 30.1538 39.0676 32.8994 38.8938C34.257 38.8081 35.5789 38.5664 36.817 37.9694C37.3356 37.7201 37.8212 37.4203 38.289 37.0879C38.3653 37.035 38.4415 36.9821 38.533 36.9166C38.0526 39.7426 35.8942 42.1958 32.1418 42.3091C28.0894 42.43 25.8395 39.8282 25.3413 36.8536H25.3438ZM31.8647 42.1479C32.4596 42.1429 32.9579 42.0044 33.4638 41.9389C34.168 41.8507 34.7883 41.5737 35.3984 41.279C36.2094 40.8911 36.8069 40.2186 37.356 39.5361C37.6458 39.1759 37.8848 38.7452 37.9839 38.2591C38.0221 38.0727 38.0322 37.8334 38.2559 37.6974C38.3678 37.6294 38.3119 37.5035 38.1771 37.4732C38.0526 37.443 37.9305 37.4657 37.8314 37.5589C37.6585 37.7201 37.4577 37.8334 37.2441 37.9442C37.0331 38.0551 36.8043 38.118 36.5984 38.2314C35.8942 38.6218 35.1239 38.8333 34.3383 38.9341C33.3418 39.06 32.3426 39.2212 31.3257 39.128C30.919 39.0902 30.5071 39.0676 30.0978 39.0449C29.8207 39.0298 29.5284 38.9845 29.2563 38.919C28.8292 38.8132 28.4123 38.657 27.9903 38.5286C27.4666 38.3699 26.981 38.1608 26.5285 37.8611C26.4421 37.8032 26.3404 37.7528 26.2412 37.7402C26.0988 37.7201 25.9794 37.7301 25.9717 37.5236C25.9692 37.438 25.8116 37.3674 25.715 37.3851C25.5853 37.4077 25.6743 37.5337 25.6768 37.6017C25.6845 37.8007 25.8192 37.9644 25.8726 38.1482C26.0683 38.8308 26.4344 39.4202 26.859 39.9793C27.0191 40.1884 27.1869 40.3924 27.3929 40.5612C27.6318 40.7576 27.881 40.9465 28.1352 41.1254C28.4733 41.3621 28.847 41.5561 29.2335 41.6769C29.6173 41.7978 30.0165 41.8885 30.4156 41.9666C30.9241 42.0673 31.43 42.1177 31.8647 42.153V42.1479Z" fill="#26557D"/>
<path d="M21.9321 24.5146C20.9584 24.6304 19.9771 24.6808 19.0136 24.8924C18.9907 24.8974 18.9627 24.8798 18.9373 24.8722C19.0364 24.8672 19.1178 24.8193 19.2042 24.7765C19.5119 24.6229 19.6669 24.2728 20.0076 24.1645C20.2364 24.0914 20.4398 23.9428 20.6279 23.8194C21.1872 23.4517 21.805 23.3182 22.4431 23.2048C22.7634 23.1469 23.0659 23.1897 23.3786 23.2099C23.8744 23.2401 24.271 23.4668 24.5786 23.827C24.6777 23.9403 24.9116 24.0562 24.8074 24.24C24.7184 24.3962 24.5303 24.235 24.3828 24.235C23.8947 24.235 23.4091 24.2702 22.9236 24.2954C22.3058 24.3282 21.6829 24.3257 21.0703 24.4189C20.6991 24.4743 20.305 24.4365 19.9186 24.638C20.6203 24.6732 21.266 24.4692 21.927 24.5196L21.9321 24.5146Z" fill="#3254A3"/>
<path d="M38.2737 30.3378C38.2305 29.023 39.6491 27.6075 40.9889 27.6554C42.4583 27.7082 43.7015 28.9449 43.6811 30.4108C43.6633 31.7785 42.5041 33.1763 40.9584 33.1638C39.3872 33.1537 38.2534 31.9598 38.2712 30.3378H38.2737ZM40.8414 27.877C40.2897 27.7687 39.7584 28.1264 39.2932 28.5193C38.7415 28.9852 38.5483 29.6829 38.3322 30.3478C38.3144 30.4058 38.317 30.4637 38.378 30.4964C38.5458 30.5947 38.5356 30.7685 38.5432 30.9196C38.5839 31.8817 39.2474 32.5492 40.094 32.8187C40.4041 32.9169 40.7194 32.8817 41.0295 32.9169C41.5634 32.9774 42.0337 32.7935 42.4507 32.5013C42.7176 32.3149 42.9337 32.0656 43.1066 31.7659C43.6252 30.8642 43.6557 29.9524 43.1345 29.0784C42.6668 28.2951 41.927 27.8694 40.844 27.8745L40.8414 27.877Z" fill="#26557D"/>
<path d="M24.4998 32.1412C24.4972 32.0253 24.5379 31.9372 24.5964 31.8314C25.0031 31.0959 25.1531 30.3302 24.8913 29.4991C24.6599 28.7636 24.1693 28.2624 23.4879 27.9677C22.7354 27.6453 21.9728 27.6529 21.2762 28.1642C21.1465 28.2599 20.9533 28.2221 20.8491 28.3657C20.6228 28.6755 20.333 28.9298 20.2059 29.3253C20.1093 29.6275 19.9415 29.8995 19.9262 30.2345C19.9212 30.3705 19.9059 30.4914 19.972 30.6123C20.1372 30.9221 20.094 31.2873 20.2389 31.6072C20.2898 31.7206 20.3279 31.849 20.4652 31.8742C20.6584 31.912 20.4982 32.0958 20.6254 32.189C20.9126 32.4031 21.1719 32.655 21.5152 32.7809C22.3744 33.0983 23.193 32.9849 23.9634 32.5089C24.2074 32.3578 24.1998 32.2898 23.9634 32.1639C24.1193 32.1068 24.265 32.1336 24.4006 32.2445C23.7574 33.063 22.8702 33.2142 21.9194 33.0555C20.905 32.8842 20.2974 32.2092 19.9669 31.2848C19.3491 29.5545 20.3889 28.2649 21.5279 27.7838C23.3863 26.998 25.2955 28.5797 25.1913 30.3932C25.1531 31.0531 24.9192 31.6324 24.4998 32.1412Z" fill="#26557D"/>
<path d="M44.5201 24.8873C42.5396 24.5901 40.5567 24.2954 38.5356 24.4717C38.4797 24.4767 38.4136 24.5095 38.3754 24.4541C38.3322 24.3936 38.3754 24.3307 38.4034 24.2677C38.8279 23.3887 39.8016 22.8522 40.788 22.9605C42.2168 23.1166 43.4142 23.7413 44.4235 24.7387C44.4565 24.7714 44.487 24.8092 44.5099 24.8495C44.5226 24.8697 44.5201 24.8999 44.5175 24.8873H44.5201ZM43.8718 24.439C43.526 24.2878 43.3201 24.041 43.0608 23.8949C42.56 23.6179 42.0337 23.3962 41.4617 23.2577C40.3965 23.0008 39.4864 23.1796 38.7466 24.0108C38.6856 24.0788 38.6322 24.1543 38.6805 24.24C38.7313 24.3332 38.8203 24.3407 38.9296 24.3155C39.0771 24.2803 39.222 24.2425 39.3796 24.2349C40.0508 24.2072 40.7194 24.2551 41.3855 24.3105C41.7439 24.3407 42.1075 24.3382 42.4685 24.3961C42.9032 24.4641 43.3455 24.5523 43.8769 24.4364L43.8718 24.439Z" fill="#26557D"/>
<path d="M21.9321 24.5146C21.2711 24.4642 20.6228 24.6682 19.9237 24.633C20.3101 24.434 20.7042 24.4692 21.0753 24.4138C21.688 24.3206 22.3109 24.3232 22.9286 24.2904C23.4142 24.2652 23.8998 24.23 24.3879 24.23C24.5328 24.23 24.7235 24.3912 24.8125 24.235C24.9142 24.0536 24.6803 23.9378 24.5837 23.8219C24.2735 23.4618 23.8795 23.2351 23.3837 23.2048C23.071 23.1847 22.7659 23.1419 22.4482 23.1998C21.8075 23.3132 21.1923 23.4441 20.633 23.8144C20.4449 23.9378 20.2415 24.0864 20.0127 24.1594C19.672 24.2677 19.5169 24.6204 19.2093 24.7715C19.1229 24.8143 19.0415 24.8622 18.9424 24.8672C18.8992 24.7967 18.9576 24.7614 18.9983 24.7287C19.6644 24.1544 20.361 23.6028 21.2025 23.3182C22.0643 23.026 22.9464 22.7414 23.8795 23.1268C24.4642 23.3686 24.843 23.7892 25.1226 24.3257C25.1658 24.4063 25.1608 24.4768 25.0336 24.4642C23.9989 24.3634 22.9693 24.4995 21.9372 24.5121L21.9321 24.5146Z" fill="#26557D"/>
<path d="M31.8647 42.1479C31.43 42.1127 30.9241 42.0598 30.4156 41.9616C30.0139 41.8835 29.6148 41.7928 29.2335 41.6719C28.847 41.551 28.4733 41.3571 28.1352 41.1203C27.881 40.944 27.6344 40.7526 27.3929 40.5561C27.1895 40.3874 27.0191 40.1859 26.859 39.9743C26.4344 39.4152 26.0709 38.8258 25.8726 38.1432C25.8192 37.9593 25.6845 37.7931 25.6768 37.5967C25.6768 37.5286 25.5853 37.4027 25.715 37.38C25.8116 37.3624 25.9692 37.4329 25.9717 37.5186C25.9794 37.7251 26.0988 37.715 26.2412 37.7352C26.3404 37.7503 26.442 37.8007 26.5285 37.8561C26.981 38.1558 27.4666 38.3649 27.9903 38.5235C28.4123 38.652 28.8292 38.8081 29.2563 38.9139C29.5284 38.9819 29.8207 39.0248 30.0978 39.0399C30.5071 39.0625 30.919 39.0852 31.3257 39.123C32.3426 39.2162 33.3417 39.055 34.3383 38.929C35.1239 38.8283 35.8942 38.6167 36.5984 38.2263C36.8043 38.113 37.0306 38.0475 37.2441 37.9392C37.4577 37.8284 37.6585 37.715 37.8314 37.5538C37.9331 37.4606 38.0526 37.438 38.1771 37.4682C38.3093 37.5009 38.3678 37.6244 38.2559 37.6924C38.0322 37.8284 38.022 38.0676 37.9839 38.254C37.8822 38.7401 37.6458 39.1708 37.356 39.531C36.8068 40.2136 36.2094 40.8861 35.3984 41.274C34.7858 41.5661 34.1654 41.8432 33.4638 41.9339C32.9579 41.9968 32.4596 42.1353 31.8647 42.1429V42.1479Z" fill="#0C5E8E"/>
<path d="M40.8414 27.877C41.927 27.8719 42.6642 28.2976 43.132 29.0809C43.6532 29.9549 43.6227 30.8667 43.104 31.7684C42.9312 32.0681 42.7125 32.3174 42.4481 32.5038C42.0337 32.796 41.5634 32.9798 41.027 32.9194C40.7169 32.8841 40.3991 32.9194 40.0915 32.8212C39.2449 32.5517 38.5814 31.8842 38.5407 30.9221C38.5356 30.7709 38.5432 30.5972 38.3754 30.4989C38.3144 30.4637 38.3119 30.4057 38.3297 30.3503C38.5458 29.6854 38.739 28.9877 39.2906 28.5217C39.7559 28.1288 40.2872 27.7712 40.8389 27.8795L40.8414 27.877Z" fill="#0D5F90"/>
<path d="M43.8718 24.4389C43.343 24.5548 42.8981 24.4667 42.4634 24.3986C42.1024 24.3407 41.7388 24.3432 41.3804 24.313C40.7143 24.2576 40.0457 24.2097 39.3745 24.2375C39.2195 24.245 39.072 24.2828 38.9246 24.318C38.8152 24.3432 38.7263 24.3357 38.6754 24.2425C38.6297 24.1569 38.6805 24.0813 38.7415 24.0133C39.4839 23.1821 40.3914 23.0008 41.4566 23.2602C42.0287 23.3987 42.5549 23.6204 43.0557 23.8974C43.3176 24.041 43.521 24.2903 43.8667 24.4415L43.8718 24.4389Z" fill="#1D649E"/>
</g>
<defs>
<clipPath id="clip0_2_1621">
<rect width="63.493" height="58.9577" fill="white"/>
</clipPath>
</defs>
</svg>
